<?xml version="1.0" encoding="utf-8"?>
<!-- Generator: Adobe Illustrator 28.3.0, SVG Export Plug-In . SVG Version: 6.00 Build 0)  -->
<svg version="1.1" id="Layer_1" xmlns="http://www.w3.org/2000/svg" xmlns:xlink="http://www.w3.org/1999/xlink" x="0px" y="0px"
	 viewBox="0 0 140 40" style="enable-background:new 0 0 140 40;" xml:space="preserve">
<style type="text/css">
	.st0{fill-rule:evenodd;clip-rule:evenodd;fill:#C5C5C5;}
	.st1{fill-rule:evenodd;clip-rule:evenodd;fill:#E20B0F;}
	.st2{fill-rule:evenodd;clip-rule:evenodd;fill:#191816;}
	.st3{fill-rule:evenodd;clip-rule:evenodd;fill:#FFFFFF;}
	.st4{fill:#FFFFFF;}
	.st5{fill:#E20B0F;}
</style>
<path class="st0" d="M20.01,1.29c10.39,0,18.82,8.43,18.82,18.82c0,10.39-8.43,18.82-18.82,18.82c-10.39,0-18.82-8.43-18.82-18.82
	C1.19,9.71,9.62,1.29,20.01,1.29"/>
<path class="st1" d="M20.01,2.61c9.66,0,17.5,7.83,17.5,17.5c0,9.66-7.83,17.5-17.5,17.5c-9.66,0-17.5-7.83-17.5-17.5
	C2.52,10.44,10.35,2.61,20.01,2.61"/>
<path class="st2" d="M23.31,14.17c-0.35-0.01-0.53-0.16-0.89,0.03c-0.35,0.18-0.22,0.35-0.75,0.29c-0.37-0.04-0.55-0.15-0.76,0.18
	c-0.11,0.17-0.54,1.24-1.12,0.98c-0.3-0.13-0.33-1.01-0.9-1.22c-0.24-0.09-0.74-0.05-0.99,0.01c-0.12-0.08-0.27-0.36-0.71-0.26
	c-0.37,0.08-0.01,0.19-0.35,0.61c-0.31,0.38-0.45,0.68-0.96,1.1c-0.27,0.22-0.46,0.5-0.7,0.67c-0.12-0.19-0.25-0.44-0.36-0.65
	c-0.15-0.28-0.23-0.39-0.31-0.76c0.59-0.17,0.02-0.58-0.43-1.28l-0.46-0.65c-0.22-0.34-0.17-0.46-0.7-0.46
	c-0.05-0.22-0.14-0.33-0.21-0.6c-0.05-0.21-0.09-0.5-0.4-0.42c-0.34,0.08-0.75,1.5-1.2,2.21c-0.24,0.38-0.67,0.78-0.72,0.97
	l0.11,0.1c0.39-0.1,1.1-1.73,1.36-2.23c0.12-0.23,0.29-0.62,0.53-0.69c0.02,0.09,0.26,0.82,0.3,0.88c0.23,0.38,0.39,0,0.74,0.3
	c0.34,0.29,0.8,0.92,0.92,1.42c-0.14,0.2-0.12,0.02-0.19,0.24c-0.06,0.19,0.02,0.22,0.03,0.41c-0.22-0.11-0.48-0.1-0.7,0.08
	c-0.15,0.12-0.09,0.14-0.33,0.14c-0.57,0.02-0.38-0.21-0.75,0.5c-0.22,0.42-0.37,0.36-0.58,0.36c-0.14-0.23-0.15-0.29-0.26-0.54
	c-0.28-0.65-0.79-0.31-1.04-0.42c-0.31-0.14-0.19-0.27-0.56-0.07c-0.08,0.21,0.09,0.11-0.14,0.44c-0.11,0.15-0.19,0.24-0.3,0.39
	l-1.62,1.81c-1.31,1.16-1.3,1.53-2.88,2.6c-0.17,0.12-0.24,0.17-0.24,0.45v0c0.2,0.14,0.25,0.2,0.52,0.12
	c0.21-0.06,0.39-0.12,0.6-0.19c0.37-0.12,0.8-0.21,1.29-0.21c-0.09,0.18-0.29,0.55-0.29,0.76c0.01,0.32,0.28,0.46,0.55,0.39
	c0.79-0.18,0.94-0.21,1.79-0.29c0.03,0.41,0.26,0.2,0.41,0.38c0.13,0.15-0.16,0.73,0.67,0.44c0.96-0.34,0.41,0.28,1.43,0.53
	c-0.12,0.17-0.24,0.15-0.36,0.33c0.65-0.16,1.97-0.32,2.26-0.43c0.11-0.04,0.18-0.06,0.33-0.09c0.52-0.11,2.31-0.24,2.91-0.24
	c-0.07,0.31-0.51,0.68-0.28,1.05c0.24,0.37,0.75,0.11,1.09,0.02c0.78-0.2,0.51-0.1,0.98,0.29c0.23,0.19,0.67,0.45,1.04,0.48
	l-0.57,0.38c0.35,0,0.79-0.11,1.12-0.18c0.37-0.07,0.7-0.11,1.14-0.16c1.78-0.2,1.31-0.35,1.24-1.18c0.23-0.16,0.3-0.26,0.65-0.35
	c0.85-0.2,1.87-0.3,2.75-0.3c-0.37,0.74-0.36,0.56-0.1,0.97c0.45,0,0.72-0.18,1.13-0.22c0.32,0.23,0.51,0.64,1.08,0.65
	c-0.21,0.33-0.32,0.11-0.41,0.38c0.41-0.21,2.34-0.33,2.59-0.47c0.3-0.16,0.13-0.48,0.13-0.83c0.57-0.32,2.05-0.61,2.72-0.65
	c2.06-0.11,1.43,0.47,2.1,0.38c0.3-0.04,0.31-0.22,0.31-0.55v-0.04l-0.34-0.18c-0.39-0.18-1.09-1.08-1.32-1.43l-2.51-4.29
	c-0.1-0.17-0.16-0.26-0.16-0.54c0.21-0.06,0.17-0.09,0.26-0.27c-0.1-0.2-0.08-0.15-0.22-0.31c-0.1-0.11-0.13-0.18-0.23-0.3
	l-0.94-1.22c-0.25-0.34-0.18-0.39-0.71-0.39c-0.22-0.45-0.31-1.21-0.72-1.08c-0.33,0.1-0.89,1.76-1.53,2.61
	c-0.17,0.23-0.55,0.47-0.62,0.75l0.11,0.1c0.64-0.14,1.38-2.53,2.15-3.07c0.28,0.55,0.19,1.15,0.77,1.13
	c0.27-0.01,0.28-0.08,0.78,0.43c0.08,0.08,0.2,0.25,0.28,0.36c0.14,0.19,0.42,0.62,0.44,0.89c-0.34,0.1-0.28,0.32-0.15,0.6
	c-0.36-0.03-0.48-0.16-0.8,0.08c-0.2,0.15-0.04,0.13-0.33,0.14c-0.94,0.05-0.52-0.1-0.95,0.57c-0.17,0.27-0.29,0.36-0.51,0.36
	c-0.46,0-0.3-0.81-0.83-0.97c-0.25-0.08-0.54,0.04-0.79-0.04c-0.11-0.03-0.59-0.39-0.65,0.05c-0.03,0.19-0.04,0.16-0.22,0.41
	c-0.14,0.2-0.24,0.34-0.43,0.47c-0.11-0.48-1.53-2.45-1.7-3.19c0.57-0.32,0.35-0.52,0.09-0.8l-0.93-1.18
	c-0.21-0.29-0.39-0.49-0.61-0.77c-0.27-0.36-0.31-0.58-0.86-0.45c-0.18-0.29-0.2-0.23-0.34-0.67c-0.08-0.26-0.13-0.58-0.32-0.69
	c-0.06-0.03-0.11-0.05-0.17-0.05H20.6c-0.58,0.03-1.06,1.55-1.52,2.36c-0.82,1.45-1.08,1.27-1.36,1.71
	c-0.19,0.3,0.14,0.91,1.21-1.12c0.3-0.57,1.16-2.2,1.66-2.47c0.39,0.78,0.35,1.52,1.01,1.44c0.36-0.04,0.36,0.01,0.6,0.17
	c0.29,0.21,0.61,0.53,0.8,0.83c0.21,0.32,0.48,0.72,0.57,1.13C23.04,13.55,23.3,13.94,23.31,14.17"/>
<path class="st2" d="M24.23,27.34c-0.01,0.03-0.03,0.05-0.05,0.08c-0.02,0.03-0.03,0.06-0.05,0.08c-0.02,0.03-0.07,0.15-0.08,0.18
	c-0.12,0.34-0.1,0.69,0.02,1.03c0.06,0.18,0.09,0.23,0.17,0.38c0.08,0.15,0.21,0.32,0.32,0.46l0.17,0.18c0.18,0.14,0,0.09,0.48,0.01
	c0.33-0.05,0.65-0.05,0.97,0.02c0.06,0.01,0.1,0.03,0.16,0.04c0.07,0.02,0.23,0.07,0.3,0.1l0.36,0.14c0.13,0.05,0.22,0.09,0.36,0.13
	c0.26,0.09,0.56,0.15,0.84,0.15c0.14,0,0.31,0,0.44-0.02c0.02,0,0.02-0.01,0.04-0.02c0.01-0.01,0.02-0.02,0.03-0.03l0.09-0.08
	c0.06-0.05,0.14-0.14,0.19-0.2c0.08-0.09,0.17-0.24,0.21-0.35c0.01-0.03,0.05-0.14,0.05-0.17c-0.09,0-0.35-0.07-0.43-0.1
	c-0.11-0.04-0.32-0.12-0.42-0.17L28.04,29c-0.4-0.21-0.97-0.58-1.38-0.82c-0.09-0.05-0.31-0.19-0.41-0.24l-0.14-0.08
	c-0.05-0.03-0.09-0.05-0.14-0.07l-0.22-0.11c-0.02-0.01-0.05-0.02-0.07-0.03c-0.03-0.01-0.05-0.02-0.08-0.03
	c-0.03-0.01-0.05-0.02-0.08-0.03c-0.03-0.01-0.05-0.02-0.08-0.03c-0.1-0.04-0.22-0.08-0.32-0.11c-0.26-0.07-0.54-0.13-0.81-0.1
	L24.23,27.34z M23.66,27.6C23.66,27.6,23.67,27.6,23.66,27.6l0.03-0.07c0.03-0.07,0.07-0.13,0.12-0.19
	c0.06-0.07,0.14-0.14,0.23-0.18c0.32-0.15,0.71-0.11,1.05-0.03c0.22,0.05,0.41,0.12,0.62,0.2c0.05,0.02,0.09,0.04,0.14,0.06
	l0.35,0.16c0.08,0.04,0.26,0.13,0.34,0.18c0.09,0.05,0.18,0.1,0.26,0.15l0.38,0.23c0.02,0.01,0.04,0.03,0.06,0.04
	c0.06,0.04,0.12,0.08,0.18,0.12c0.02,0.02,0.04,0.03,0.06,0.04l0.48,0.34c0.02,0.01,0.04,0.04,0.06,0.04
	c-0.01-0.02-0.02-0.04-0.03-0.05l-0.19-0.35c-0.01-0.02-0.02-0.04-0.03-0.06c-0.08-0.16-0.17-0.31-0.24-0.48l-0.22-0.49l-0.15-0.39
	c-0.02-0.05-0.03-0.09-0.05-0.13c-0.02-0.04-0.03-0.09-0.04-0.13c-0.21-0.64-0.33-1.2-0.48-1.86c-0.01-0.05-0.02-0.1-0.03-0.15
	c-0.01-0.05-0.03-0.11-0.03-0.15c-0.02,0-0.1,0.04-0.13,0.06l-0.24,0.13c-0.04,0.02-0.08,0.05-0.12,0.07
	c-0.15,0.09-0.31,0.19-0.45,0.3l-0.16,0.12c-0.07,0.05-0.2,0.15-0.26,0.21c-0.01,0.01-0.01,0.01-0.02,0.02l-0.31,0.3l-0.18,0.19
	c-0.08,0.09-0.16,0.19-0.23,0.28c-0.07,0.1-0.15,0.2-0.22,0.3l-0.26,0.44c-0.1,0.18-0.17,0.37-0.24,0.56
	c-0.01,0.03-0.01,0.04-0.02,0.07C23.68,27.55,23.66,27.58,23.66,27.6z M23.46,30.6c0.01,0,0.03-0.01,0.05-0.02l0.24-0.1
	c0.03-0.01,0.07-0.03,0.1-0.04c0.45-0.15,0.62-0.2,1.11-0.27c0.32-0.04,0.73,0,1.03,0.06c0.1,0.02,0.19,0.05,0.29,0.08
	c0.05,0.01,0.09,0.03,0.14,0.04c0.05,0.02,0.09,0.03,0.14,0.05c0.15,0.05,0.4,0.14,0.56,0.18c0.33,0.08,0.42,0.1,0.78,0.1
	c0.19,0,0.38-0.04,0.56-0.08c0.15-0.04,0.42-0.13,0.56-0.2c0.07-0.03,0.14-0.06,0.2-0.09l-0.2,0.05c-0.07,0.02-0.15,0.03-0.23,0.05
	c-0.34,0.06-0.7,0.07-1.04-0.01c-0.05-0.01-0.11-0.02-0.16-0.04l-0.23-0.07c-0.02-0.01-0.05-0.02-0.07-0.03l-0.57-0.22
	c-0.1-0.03-0.19-0.07-0.3-0.1c-0.21-0.06-0.45-0.12-0.68-0.12c-0.33,0-0.47,0.01-0.78,0.09c-0.22,0.05-0.46,0.15-0.67,0.23
	l-0.31,0.14c-0.02,0.01-0.04,0.02-0.06,0.03l-0.35,0.19C23.55,30.54,23.46,30.59,23.46,30.6z M27.47,25.02
	c0.01,0,0.03-0.01,0.04-0.01c0.01,0,0.03-0.01,0.04-0.01c0.09-0.02,0.2-0.02,0.28,0.03c0.04,0.02,0.07,0.05,0.09,0.09
	c0.04,0.05,0.1,0.2,0.1,0.26c0.02,0,0.02-0.01,0.03-0.02l0.1-0.06c0.32-0.15,0.41,0.08,0.41,0.38c0,0,0,0,0,0c0,0.01,0,0,0-0.01
	c0.02-0.06,0.03-0.16,0.03-0.22c0-0.3-0.25-0.41-0.45-0.31c-0.01,0.01-0.02,0.01-0.04,0.02c0-0.08-0.09-0.19-0.18-0.23
	c-0.1-0.05-0.24-0.03-0.33,0.02C27.58,24.96,27.49,25,27.47,25.02z M27.62,25.83c0.03,0,0.12-0.03,0.17-0.02
	c0.11,0.02,0.18,0.05,0.23,0.17c0.01,0.03,0.04,0.12,0.05,0.15c0.02,0,0.05-0.03,0.07-0.04c0.07-0.04,0.18-0.09,0.26-0.05
	c0.1,0.05,0.12,0.18,0.12,0.33c0,0,0,0,0-0.01c0.03-0.08,0.03-0.21,0.01-0.29c-0.01-0.03-0.02-0.06-0.04-0.08
	c-0.13-0.17-0.32-0.05-0.34-0.05c0-0.06-0.07-0.14-0.13-0.18c-0.08-0.05-0.18-0.03-0.26,0C27.72,25.76,27.63,25.81,27.62,25.83z
	 M28.7,25.96c0.05,0,0.23-0.08,0.31,0.11c0.01,0.03,0.03,0.08,0.04,0.12c0.02,0,0.04-0.02,0.05-0.03c0.02-0.01,0.03-0.02,0.06-0.03
	c0.18-0.07,0.23,0.06,0.23,0.24c0.01-0.01,0.01-0.01,0.01-0.03c0.02-0.07,0.02-0.14,0-0.22c-0.03-0.09-0.13-0.14-0.23-0.11
	c-0.02,0.01-0.03,0.02-0.06,0.02c-0.01-0.07-0.08-0.15-0.17-0.16c-0.05,0-0.09,0-0.13,0.02c-0.04,0.01-0.06,0.03-0.09,0.05
	L28.7,25.96C28.7,25.96,28.71,25.96,28.7,25.96z M23.66,27.6c0,0.01,0-0.01,0,0.01h0V27.6z"/>
<path class="st2" d="M31.02,8.48c-0.04,0.01-0.08,0.03-0.12,0.04l-0.17,0.06c-0.14,0.05-0.27,0.1-0.41,0.15
	c-0.12,0.04-0.23,0.09-0.35,0.12c-0.02,0.01-0.03,0.01-0.06,0.02l-0.29,0.1C29.55,9,29.5,9.03,29.44,9.08
	c-0.06,0.05-0.18,0.1-0.23,0.15c0.05,0.01,0.23,0.1,0.28,0.12l0.28,0.12l0.08-0.05c0.08-0.06,0.16-0.11,0.24-0.17
	c0.04-0.03,0.13-0.09,0.17-0.1c0.03-0.01,0.07-0.03,0.1-0.02c0.04,0.01,0.07,0.03,0.11,0.04c-0.03,0.13-0.09,0.25-0.11,0.37
	c0.02,0,0.26-0.06,0.3-0.07l0.22-0.05c0.08-0.02,0.21,0.02,0.2,0.08l0,0C31.07,9.52,31.02,9.54,31,9.55l-0.15,0.09
	c-0.02,0.01-0.02,0.01-0.04,0.02l-0.27,0.16c-0.02,0.01-0.06,0.03-0.08,0.05c0.03,0.03,0.03,0.05,0.02,0.09
	c0,0.02-0.05,0.03-0.07,0.03c-0.03,0-0.07-0.01-0.1-0.01c-0.02,0-0.04,0.03-0.06,0.04l-0.17,0.15c-0.02,0.02-0.04,0.03-0.06,0.05
	c-0.02,0.02-0.04,0.04-0.08,0.03c-0.1-0.02-0.08-0.07-0.09-0.13l0-0.14c0-0.03,0.01-0.02-0.02-0.03c-0.15-0.02-0.68-0.12-0.83-0.17
	c-0.02-0.01-0.05-0.01-0.07-0.02c-0.07-0.02-0.28-0.1-0.31-0.09c-0.03,0-0.14,0.08-0.18,0.09c-0.05,0.02-0.1,0.06-0.15,0.09
	c-0.01,0.01-0.02,0-0.02,0.02l-0.16,0.7l0,0c-0.06-0.01-0.17-0.05-0.2-0.07c-0.06-0.05-0.07-0.19-0.09-0.26
	c0-0.01-0.01-0.03-0.01-0.04l-0.07-0.32c0-0.02,0-0.03-0.01-0.05l-0.11-0.5c-0.01-0.07-0.02-0.05-0.16-0.11
	c-0.31-0.12-0.73-0.32-0.99-0.51c-0.07-0.05-0.22-0.19-0.2-0.29l0,0c0.04-0.18,0.2-0.1,0.45-0.16C26.9,8.2,27.1,8.3,27.21,8.37
	c0.08,0.06,0.17,0.09,0.26,0.13l0.41,0.18C28.05,8.75,28,8.75,28.2,8.71l0.53-0.08c0.12-0.02,0.23-0.03,0.35-0.05l1.22-0.19
	c0.05-0.01,0.5-0.08,0.53-0.08h0c0.09,0.02,0.11,0.06,0.16,0.12C31,8.45,31.01,8.46,31.02,8.48"/>
<path class="st3" d="M19.27,9.02l0.14-0.01c0.11,0,0.05,0,0.14-0.01c0.3-0.04,0.61-0.16,0.85-0.36l0.08-0.06
	c0.04-0.04,0.08-0.07,0.12-0.11l0.01-0.01c0.05-0.05,0.1-0.1,0.14-0.15c0.03-0.04,0.08-0.09,0.09-0.14L20.69,8.3
	c-0.02,0.02-0.05,0.04-0.08,0.06c-0.02,0.02-0.02,0.02-0.04,0.03l-0.17,0.1c-0.02,0.01-0.03,0.01-0.05,0.02
	c-0.05,0.03-0.14,0.06-0.2,0.07c-0.02,0-0.03,0.01-0.05,0.01c-0.05,0.02-0.13,0.02-0.18,0.03c-0.06,0.02-0.25,0.01-0.32,0.01
	L19.42,8.6C19.4,8.6,19.4,8.59,19.37,8.59c-0.06-0.01-0.11-0.03-0.16-0.05c-0.02-0.01-0.03-0.01-0.05-0.02
	c-0.09-0.04-0.18-0.09-0.26-0.15c-0.01-0.01-0.02-0.02-0.04-0.03c-0.1-0.08-0.21-0.16-0.28-0.27c-0.14-0.2-0.23-0.36-0.29-0.6
	l-0.03-0.18V7.01l0.02-0.14c0.03-0.22,0.16-0.49,0.3-0.66c0,0,0.01-0.01,0.01-0.01c0.01-0.01,0.01-0.01,0.02-0.02L18.7,6.1
	c0.1-0.1,0.24-0.21,0.36-0.27c0.21-0.09,0.26-0.11,0.48-0.15c0.12-0.02,0.19-0.01,0.33-0.01c0.06,0,0.24,0.04,0.3,0.06
	c0.07,0.02,0.25,0.09,0.31,0.13l0.16,0.11c0.05,0.04,0.18,0.16,0.19,0.17c-0.01-0.05-0.16-0.22-0.2-0.26
	C20.42,5.66,20.27,5.56,20,5.43c-0.02-0.01-0.04-0.01-0.06-0.02c-0.02-0.01-0.03-0.01-0.06-0.02c-0.01,0-0.02,0-0.03-0.01
	c-0.16-0.06-0.47-0.11-0.63-0.09c-0.02,0-0.04,0-0.07,0c-0.06,0-0.16,0.01-0.21,0.02c-0.11,0.03-0.22,0.05-0.32,0.09l-0.14,0.06
	c-0.21,0.1-0.42,0.24-0.58,0.42c-0.14,0.16-0.25,0.34-0.35,0.54c-0.01,0.01-0.01,0.02-0.01,0.03c-0.02,0.06-0.05,0.11-0.06,0.17
	c-0.01,0.07-0.05,0.15-0.06,0.25c0,0.04-0.01,0.1-0.01,0.14c0,0.05-0.01,0.1-0.01,0.15c0,0.03,0.01,0.03,0.01,0.06
	c0,0.07,0.01,0.14,0.02,0.22L17.5,7.7l0.14,0.32l0.12,0.19c0.02,0.03,0.04,0.06,0.07,0.09c0.04,0.06,0.09,0.11,0.15,0.16
	c0.05,0.05,0.1,0.1,0.16,0.14l0.18,0.13c0.06,0.04,0.13,0.07,0.2,0.1l0.35,0.12c0.08,0.02,0.13,0.02,0.19,0.04
	C19.09,9.01,19.21,9.02,19.27,9.02"/>
<path class="st3" d="M21.39,6.95l-0.47,0.15c-0.04,0.01-0.12,0.05-0.16,0.05c0.01,0.03,0,0.02,0.03,0.02l0.12,0.04
	c0.02,0,0.02,0.01,0.04,0.01l0.45,0.14v0.67c0.03-0.01,0.07-0.08,0.11-0.13l0.3-0.4c0.03,0,0.18,0.05,0.24,0.07
	c0.08,0.02,0.34,0.12,0.4,0.13c-0.01-0.04-0.29-0.4-0.34-0.47l-0.05-0.07l0.2-0.27c0.03-0.05,0.06-0.09,0.1-0.14
	c0.02-0.02,0.03-0.04,0.05-0.07c0.02-0.02,0.04-0.05,0.05-0.07c-0.09,0.02-0.18,0.06-0.24,0.07l-0.15,0.05
	c-0.31,0.1-0.22,0.11-0.35-0.06c-0.02-0.02-0.03-0.04-0.05-0.06l-0.1-0.13c-0.02-0.03-0.12-0.19-0.16-0.2V6.95z"/>
<path class="st4" d="M16.32,9.94l0.92,2.59l-0.16,0.03c0-0.01-0.24-0.28-0.73-0.82c-0.49-0.54-1.04-0.96-1.67-1.25
	c-0.63-0.29-1.33-0.44-2.12-0.44c-1.32,0-2.37,0.4-3.15,1.21c-0.77,0.81-1.16,1.78-1.16,2.92c0,0.76,0.18,1.42,0.54,1.98
	c0.36,0.57,1.12,1.09,2.28,1.58c1.99,0.71,3.36,1.24,4.09,1.6c0.73,0.36,1.44,0.97,2.12,1.84c0.68,0.87,1.02,1.98,1.02,3.33
	c0,0.57-0.06,1.1-0.18,1.62c-0.12,0.51-0.32,1-0.59,1.48c-0.27,0.48-0.6,0.91-0.98,1.3c-0.38,0.39-0.77,0.69-1.17,0.89
	c-0.4,0.2-1.02,0.36-1.87,0.46c-0.85,0.1-1.41,0.15-1.69,0.15H6.62V24.4h0.19c0.02,1.99,0.46,3.37,1.32,4.15
	c0.86,0.78,2.21,1.18,4.03,1.18c1.66,0,2.91-0.42,3.77-1.25c0.86-0.84,1.29-1.83,1.29-3.01c0-0.71-0.15-1.32-0.45-1.81
	c-0.3-0.5-0.72-0.94-1.25-1.32c-0.54-0.38-1.55-0.84-3.04-1.39c-1.49-0.56-2.53-1.05-3.13-1.46c-0.6-0.42-1.11-1.05-1.51-1.89
	c-0.41-0.84-0.61-1.69-0.61-2.57c0-1.6,0.52-2.95,1.55-4.04c1.04-1.09,2.39-1.63,4.07-1.63c0.65,0,1.36,0.08,2.11,0.24
	c0.76,0.16,1.18,0.26,1.27,0.31C16.25,9.93,16.28,9.94,16.32,9.94"/>
<path class="st4" d="M26.37,31.94h-0.41v2.1c0,0.13,0.02,0.23,0.07,0.3c0.04,0.06,0.12,0.11,0.23,0.14
	c0.11,0.03,0.25,0.04,0.43,0.04c0.5,0,0.86-0.13,1.06-0.39c0.2-0.26,0.31-0.54,0.31-0.85c0-0.36-0.14-0.68-0.42-0.94
	C27.35,32.08,26.93,31.94,26.37,31.94 M25.46,31.91v-0.03h1.23c0.31,0,0.56,0.03,0.74,0.07c0.18,0.05,0.34,0.13,0.48,0.23
	c0.13,0.11,0.24,0.24,0.32,0.41c0.08,0.17,0.12,0.35,0.12,0.56c0,0.2-0.04,0.39-0.12,0.58c-0.08,0.19-0.19,0.35-0.33,0.49
	c-0.14,0.14-0.29,0.23-0.45,0.28c-0.16,0.05-0.4,0.08-0.72,0.08h-1.26v-0.03h0.03c0.06,0,0.11-0.03,0.13-0.08
	c0.02-0.05,0.03-0.15,0.03-0.29v-1.98c0-0.15-0.01-0.24-0.04-0.27C25.59,31.93,25.53,31.91,25.46,31.91z M24.67,31.89h0.52v0.03
	c-0.08,0-0.13,0.02-0.16,0.05c-0.03,0.03-0.04,0.1-0.04,0.2v2.47l-2.15-2.3v2.01c0,0.06,0,0.11,0.01,0.14
	c0.01,0.03,0.02,0.05,0.04,0.06c0.02,0.01,0.06,0.02,0.14,0.03v0.03h-0.51v-0.03c0.09,0,0.15-0.02,0.17-0.05
	c0.02-0.03,0.03-0.11,0.03-0.24v-1.84c0-0.16-0.02-0.29-0.07-0.39c-0.04-0.1-0.15-0.15-0.31-0.14v-0.03h0.5l2.02,2.16v-1.92
	c0-0.1-0.02-0.17-0.05-0.19c-0.04-0.02-0.08-0.03-0.14-0.03V31.89z M20.55,33.27h0.73l-0.36-0.92L20.55,33.27z M21.31,33.35h-0.79
	l-0.4,1.03c-0.03,0.07-0.04,0.12-0.04,0.14c0,0.04,0.03,0.06,0.09,0.06v0.03h-0.4v-0.03c0.05,0,0.1-0.01,0.14-0.04
	c0.04-0.03,0.08-0.1,0.12-0.21l0.98-2.48h0.05l0.96,2.4c0,0.01,0.02,0.07,0.07,0.17c0.05,0.1,0.12,0.16,0.22,0.16v0.03h-0.63v-0.03
	c0.06,0,0.09-0.02,0.09-0.07c0-0.03-0.01-0.08-0.04-0.15c0,0-0.01-0.01-0.01-0.02c0-0.01,0-0.02-0.01-0.02L21.31,33.35z M17.76,34.6
	v-0.03c0.08,0,0.14-0.02,0.16-0.05c0.02-0.03,0.04-0.09,0.04-0.16v-2.22c0-0.08-0.01-0.14-0.03-0.17c-0.02-0.03-0.08-0.05-0.18-0.06
	v-0.03h0.72v0.03c-0.07,0-0.11,0.01-0.14,0.03c-0.03,0.02-0.04,0.04-0.05,0.06c-0.01,0.02-0.01,0.08-0.01,0.16v1.9
	c0,0.16,0.04,0.28,0.12,0.35c0.08,0.07,0.21,0.1,0.4,0.1h0.33c0.16,0,0.27-0.04,0.35-0.12c0.07-0.08,0.11-0.23,0.12-0.44h0.03v0.65
	H17.76z M15.39,34.23l-1.03-1c-0.01-0.01-0.05-0.05-0.13-0.14c-0.08-0.08-0.13-0.14-0.15-0.18c-0.37,0.09-0.55,0.27-0.55,0.55
	c0,0.25,0.12,0.49,0.36,0.71c0.24,0.22,0.51,0.33,0.81,0.33c0.16,0,0.28-0.02,0.37-0.06c0.09-0.04,0.19-0.1,0.3-0.19
	c0-0.01,0.01-0.01,0.02-0.01C15.38,34.23,15.39,34.23,15.39,34.23z M15.01,32.02l0.12,0.31h-0.04c-0.1-0.12-0.22-0.22-0.35-0.3
	c-0.13-0.08-0.26-0.11-0.39-0.11c-0.11,0-0.2,0.03-0.26,0.1c-0.06,0.07-0.09,0.14-0.09,0.22c0,0.15,0.12,0.34,0.36,0.58l1.19,1.19
	c0.09-0.12,0.15-0.28,0.19-0.47c0.03-0.19,0.05-0.34,0.05-0.44c0-0.08-0.02-0.12-0.05-0.14c-0.03-0.02-0.09-0.03-0.17-0.04l-0.03,0
	l-0.06,0v-0.03h0.57v0.03c-0.06-0.01-0.1,0.01-0.12,0.05c-0.02,0.04-0.04,0.13-0.06,0.27c-0.05,0.37-0.14,0.64-0.26,0.82l0.27,0.28
	c0.13,0.13,0.27,0.2,0.4,0.2c0.1,0,0.2-0.03,0.31-0.09l0.02,0.03c-0.16,0.12-0.34,0.17-0.53,0.17c-0.2,0-0.38-0.08-0.55-0.25
	c0-0.01-0.01-0.01-0.02-0.03l-0.09-0.09c-0.25,0.24-0.58,0.37-0.98,0.37c-0.39,0-0.67-0.1-0.86-0.3c-0.19-0.2-0.28-0.42-0.28-0.66
	c0-0.21,0.06-0.39,0.19-0.54c0.13-0.15,0.3-0.25,0.52-0.29c-0.06-0.09-0.11-0.17-0.14-0.25c-0.03-0.07-0.05-0.15-0.05-0.24
	c0-0.13,0.05-0.25,0.14-0.36c0.09-0.11,0.24-0.16,0.45-0.16c0.12,0,0.22,0.02,0.31,0.05C14.83,31.92,14.92,31.96,15.01,32.02z"/>
<path class="st4" d="M20.74,29.78h0.73l-0.37-0.92L20.74,29.78z M21.51,29.86h-0.8l-0.41,1.03c-0.03,0.07-0.04,0.12-0.04,0.14
	c0,0.04,0.03,0.06,0.09,0.06v0.03h-0.4v-0.03c0.05,0,0.1-0.01,0.14-0.04c0.04-0.03,0.08-0.09,0.12-0.21l0.99-2.48h0.05l0.96,2.4
	c0,0.01,0.02,0.07,0.07,0.17c0.05,0.1,0.13,0.16,0.23,0.16v0.03h-0.63v-0.03c0.06,0,0.09-0.02,0.09-0.07c0-0.03-0.01-0.08-0.04-0.15
	c0-0.01-0.01-0.01-0.01-0.02c0-0.01,0-0.02-0.01-0.02L21.51,29.86z M18.03,28.42V28.4h1.71v0.37h-0.03
	c-0.04-0.14-0.07-0.22-0.09-0.25c-0.03-0.02-0.09-0.04-0.19-0.04h-0.9v1.22h0.83c0.08,0,0.14-0.01,0.16-0.02
	c0.02-0.02,0.03-0.04,0.04-0.07h0.03v0.26h-0.03c-0.01-0.04-0.02-0.06-0.04-0.07c-0.02-0.01-0.06-0.02-0.13-0.02h-0.86v0.84
	c0,0.13,0.01,0.22,0.04,0.27c0.02,0.06,0.06,0.09,0.11,0.1c0.05,0.01,0.13,0.02,0.23,0.02h0.48c0.15,0,0.25,0,0.29-0.02
	c0.04-0.01,0.08-0.03,0.11-0.06c0.03-0.03,0.05-0.1,0.07-0.2h0.03v0.37h-1.86v-0.03c0.06,0,0.11-0.02,0.14-0.04
	c0.03-0.02,0.05-0.07,0.05-0.16v-2.19c0-0.1-0.01-0.17-0.03-0.21C18.18,28.44,18.12,28.42,18.03,28.42z"/>
<path class="st4" d="M129.27,20.55c-0.33,0-0.49-0.16-0.49-0.47V6.67c0.31-0.05,0.65-0.11,1.01-0.15c0.36-0.05,0.73-0.09,1.1-0.12
	c0.37-0.03,0.74-0.06,1.09-0.08c0.35-0.02,0.69-0.03,1-0.03c0.96,0,1.79,0.12,2.49,0.37c0.69,0.24,1.26,0.65,1.71,1.2
	c0.45,0.56,0.78,1.29,0.99,2.2c0.21,0.91,0.32,2.02,0.32,3.34c0,1.32-0.11,2.43-0.32,3.34c-0.21,0.91-0.53,1.65-0.97,2.21
	c-0.43,0.56-1,0.97-1.68,1.22c-0.69,0.25-1.5,0.38-2.46,0.38H129.27z M132.9,8c-0.31,0-0.66,0.01-1.04,0.04
	c-0.38,0.03-0.69,0.06-0.94,0.1v10.7h1.94c0.58,0,1.09-0.06,1.53-0.19c0.43-0.13,0.79-0.39,1.08-0.78c0.29-0.39,0.5-0.95,0.63-1.68
	c0.14-0.73,0.2-1.69,0.2-2.88c0-1.06-0.06-1.93-0.17-2.62c-0.12-0.69-0.31-1.23-0.57-1.63c-0.26-0.4-0.61-0.68-1.05-0.83
	C134.07,8.07,133.54,8,132.9,8z M125.93,20.55h-1.69c-0.23,0-0.41-0.16-0.55-0.47c-0.22-0.46-0.48-0.99-0.77-1.59
	c-0.3-0.6-0.62-1.22-0.96-1.87c-0.34-0.65-0.69-1.31-1.04-1.99c-0.35-0.67-0.69-1.31-1.02-1.92c-0.33-0.6-0.63-1.15-0.9-1.65
	c-0.27-0.5-0.5-0.9-0.67-1.21v10.7h-1.55c-0.33,0-0.49-0.16-0.49-0.47V6.43H118c0.15,0,0.26,0.04,0.35,0.13
	c0.08,0.09,0.16,0.2,0.24,0.34c0.18,0.31,0.4,0.71,0.66,1.18c0.26,0.48,0.56,1,0.88,1.57c0.32,0.57,0.65,1.18,0.99,1.81
	c0.34,0.64,0.68,1.27,1.01,1.91c0.33,0.63,0.65,1.24,0.96,1.83c0.31,0.59,0.57,1.12,0.8,1.6V6.43h1.55c0.33,0,0.49,0.16,0.49,0.47
	V20.55z M109.19,8.18c-0.32,0.96-0.66,2.01-1,3.13c-0.35,1.12-0.68,2.33-0.99,3.64h4.01c-0.31-1.3-0.65-2.52-0.99-3.64
	C109.87,10.19,109.53,9.15,109.19,8.18z M112.09,20.08c-0.1-0.61-0.2-1.2-0.3-1.76c-0.1-0.56-0.21-1.13-0.32-1.7h-4.55
	c-0.14,0.65-0.26,1.31-0.37,1.98c-0.11,0.67-0.21,1.32-0.31,1.96h-1.57c-0.3,0-0.44-0.17-0.43-0.51c0.04-0.41,0.1-0.81,0.18-1.2
	c0.25-1.32,0.52-2.58,0.82-3.78c0.3-1.2,0.61-2.33,0.92-3.38c0.32-1.05,0.63-2.02,0.95-2.9c0.32-0.88,0.63-1.66,0.91-2.34h2.04
	c0.16,0,0.29,0.03,0.37,0.1c0.08,0.07,0.15,0.18,0.2,0.33c0.29,0.69,0.6,1.52,0.94,2.49c0.34,0.96,0.68,2.04,1.01,3.22
	c0.33,1.18,0.65,2.45,0.95,3.8c0.3,1.35,0.56,2.75,0.77,4.19h-1.73C112.29,20.55,112.13,20.4,112.09,20.08z M95.79,20.55
	c-0.33,0-0.49-0.16-0.49-0.47V6.43h1.65c0.15,0,0.27,0.04,0.36,0.12c0.09,0.08,0.13,0.2,0.13,0.35v11.86h5.01
	c0.33,0,0.49,0.16,0.49,0.47v1.32H95.79z M87.47,17.52c0.39,0.49,0.75,1.01,1.06,1.56c0.31,0.55,0.56,1.04,0.75,1.48H87.9
	c-0.22,0-0.39-0.04-0.51-0.12c-0.12-0.08-0.24-0.22-0.37-0.41l-0.77-1.18c-0.57,0.65-1.21,1.14-1.92,1.47
	c-0.71,0.33-1.54,0.49-2.49,0.49c-0.62,0-1.2-0.07-1.72-0.22c-0.52-0.15-0.97-0.38-1.34-0.69c-0.37-0.31-0.66-0.71-0.87-1.19
	c-0.2-0.48-0.31-1.05-0.31-1.7c0-0.94,0.23-1.71,0.69-2.33c0.46-0.62,1.2-1.19,2.22-1.72c-0.61-0.61-1.05-1.18-1.3-1.71
	c-0.26-0.53-0.39-1.1-0.39-1.71c0-0.43,0.06-0.85,0.19-1.24c0.13-0.39,0.34-0.74,0.63-1.05c0.29-0.31,0.68-0.55,1.16-0.73
	C81.3,6.3,81.89,6.2,82.58,6.2c0.71,0,1.29,0.09,1.76,0.26c0.47,0.18,0.84,0.41,1.12,0.7c0.28,0.29,0.48,0.63,0.59,1.02
	c0.12,0.39,0.17,0.78,0.17,1.19c0,0.86-0.24,1.57-0.71,2.13c-0.48,0.56-1.2,1.11-2.18,1.64c0.56,0.49,1.07,0.98,1.55,1.48
	c0.48,0.5,0.95,1.02,1.43,1.58c0.22-0.42,0.4-0.84,0.54-1.24c0.14-0.41,0.25-0.95,0.32-1.63h1.2c0.19,0,0.32,0.04,0.38,0.12
	c0.06,0.08,0.09,0.22,0.09,0.41c0,0.26-0.04,0.55-0.13,0.88c-0.09,0.33-0.2,0.66-0.34,0.99c-0.14,0.33-0.29,0.66-0.45,0.97
	C87.76,17.01,87.61,17.28,87.47,17.52z M80.73,9.51c0,0.26,0.03,0.5,0.08,0.71c0.05,0.22,0.14,0.43,0.25,0.63
	c0.12,0.2,0.26,0.41,0.44,0.61c0.18,0.2,0.39,0.43,0.65,0.67c0.34-0.19,0.65-0.37,0.92-0.55c0.27-0.18,0.5-0.37,0.68-0.57
	c0.18-0.2,0.33-0.43,0.43-0.68c0.1-0.25,0.15-0.55,0.15-0.89c0-0.6-0.15-1.03-0.45-1.3c-0.3-0.27-0.75-0.41-1.37-0.41
	c-0.53,0-0.96,0.13-1.29,0.38C80.89,8.36,80.73,8.83,80.73,9.51z M82.11,19.15c0.69,0,1.29-0.14,1.8-0.41
	c0.51-0.27,0.95-0.63,1.31-1.08c-0.52-0.67-1.07-1.29-1.67-1.89c-0.6-0.59-1.21-1.17-1.83-1.72c-0.33,0.18-0.62,0.35-0.89,0.53
	c-0.26,0.18-0.49,0.37-0.67,0.58c-0.18,0.21-0.32,0.45-0.42,0.72c-0.1,0.27-0.14,0.59-0.14,0.96c0,0.84,0.24,1.44,0.72,1.78
	C80.81,18.97,81.41,19.15,82.11,19.15z M66.94,8.18c-0.32,0.96-0.66,2.01-1,3.13c-0.35,1.12-0.68,2.33-0.98,3.64h4.01
	c-0.31-1.3-0.65-2.52-0.99-3.64C67.63,10.19,67.28,9.15,66.94,8.18z M69.85,20.08c-0.1-0.61-0.2-1.2-0.3-1.76
	c-0.1-0.56-0.21-1.13-0.32-1.7h-4.55c-0.14,0.65-0.26,1.31-0.37,1.98c-0.11,0.67-0.21,1.32-0.31,1.96h-1.57
	c-0.3,0-0.44-0.17-0.43-0.51c0.04-0.41,0.1-0.81,0.18-1.2c0.25-1.32,0.52-2.58,0.82-3.78c0.3-1.2,0.61-2.33,0.92-3.38
	c0.32-1.05,0.63-2.02,0.95-2.9c0.32-0.88,0.63-1.66,0.91-2.34h2.04c0.16,0,0.29,0.03,0.37,0.1c0.08,0.07,0.15,0.18,0.2,0.33
	c0.29,0.69,0.6,1.52,0.94,2.49c0.34,0.96,0.68,2.04,1.01,3.22c0.33,1.18,0.65,2.45,0.95,3.8c0.3,1.35,0.56,2.75,0.77,4.19h-1.73
	C70.05,20.55,69.89,20.4,69.85,20.08z M59.82,6.43c0.31,0,0.47,0.16,0.47,0.47v1.28h-5.83v4.34h4.83c0.31,0,0.47,0.16,0.47,0.47v1.3
	h-5.3v4.5h5.58c0.15,0,0.27,0.04,0.36,0.12c0.09,0.08,0.13,0.2,0.13,0.35v1.28h-7.72c-0.33,0-0.49-0.16-0.49-0.47V6.43H59.82z
	 M41.38,10.12c0-1.29,0.37-2.26,1.1-2.91c0.73-0.65,1.87-0.98,3.4-0.98c0.57,0,1.14,0.04,1.71,0.11c0.57,0.07,1.01,0.17,1.32,0.27
	c0.22,0.1,0.35,0.2,0.4,0.32c0.05,0.12,0.07,0.25,0.07,0.4v0.94c-0.5-0.07-1.02-0.13-1.55-0.17c-0.53-0.05-1.07-0.07-1.63-0.07
	c-0.53,0-0.97,0.04-1.32,0.13c-0.35,0.09-0.64,0.21-0.85,0.38c-0.21,0.16-0.36,0.37-0.45,0.61C43.5,9.38,43.45,9.67,43.45,10
	c0,0.37,0.05,0.67,0.14,0.91c0.09,0.24,0.25,0.45,0.48,0.62c0.22,0.18,0.52,0.34,0.88,0.48c0.36,0.14,0.81,0.31,1.33,0.5
	c0.54,0.2,1.04,0.41,1.48,0.61c0.44,0.2,0.82,0.46,1.14,0.76c0.32,0.31,0.56,0.68,0.73,1.12c0.17,0.44,0.25,1,0.25,1.68
	c0,1.47-0.39,2.52-1.18,3.15c-0.79,0.63-1.93,0.95-3.42,0.95c-0.65,0-1.28-0.04-1.9-0.13c-0.61-0.09-1.09-0.19-1.43-0.32
	c-0.18-0.07-0.3-0.16-0.37-0.26c-0.07-0.11-0.1-0.24-0.1-0.41v-1.02c0.48,0.07,1,0.14,1.58,0.2c0.58,0.07,1.19,0.1,1.84,0.1
	c0.57,0,1.04-0.05,1.42-0.15c0.37-0.1,0.67-0.24,0.88-0.43c0.21-0.18,0.36-0.41,0.44-0.68c0.08-0.27,0.12-0.58,0.12-0.92
	c0-0.38-0.04-0.69-0.13-0.94c-0.09-0.24-0.24-0.45-0.46-0.62c-0.22-0.17-0.51-0.33-0.87-0.48c-0.36-0.15-0.81-0.32-1.36-0.51
	c-0.57-0.2-1.08-0.41-1.52-0.63c-0.44-0.22-0.82-0.48-1.12-0.78c-0.31-0.31-0.54-0.67-0.7-1.1C41.46,11.27,41.38,10.74,41.38,10.12z
	"/>
<path class="st5" d="M131.88,35.37c-0.23,0-0.34-0.11-0.34-0.33v-3.41c-0.32-0.54-0.62-1.06-0.88-1.56c-0.27-0.5-0.51-1-0.73-1.49
	c-0.22-0.5-0.42-1-0.6-1.5c-0.18-0.5-0.35-1.02-0.5-1.56h1.29c0.14,0,0.23,0.03,0.28,0.09c0.04,0.06,0.08,0.16,0.12,0.29
	c0.09,0.3,0.19,0.63,0.31,0.98c0.12,0.35,0.26,0.72,0.41,1.1c0.15,0.38,0.31,0.78,0.49,1.18c0.18,0.4,0.38,0.8,0.6,1.2
	c0.22-0.41,0.43-0.84,0.63-1.3c0.2-0.46,0.39-0.91,0.55-1.35c0.17-0.44,0.31-0.85,0.43-1.24c0.12-0.38,0.21-0.7,0.26-0.96h1.11
	c0.13,0,0.23,0.05,0.28,0.14c0.06,0.09,0.06,0.2,0.01,0.33c-0.17,0.54-0.35,1.05-0.53,1.52c-0.18,0.47-0.37,0.94-0.58,1.39
	c-0.21,0.45-0.43,0.9-0.68,1.34c-0.24,0.45-0.5,0.91-0.79,1.39v3.74H131.88z M125.81,25.37c0.33,0,0.68,0.03,1.03,0.08
	c0.36,0.05,0.63,0.12,0.83,0.21c0.11,0.05,0.19,0.11,0.23,0.18c0.04,0.08,0.06,0.18,0.06,0.3v0.67c-0.28-0.04-0.58-0.07-0.92-0.11
	c-0.34-0.03-0.68-0.05-1.05-0.05c-0.43,0-0.79,0.06-1.08,0.18c-0.29,0.12-0.53,0.32-0.71,0.6c-0.18,0.28-0.31,0.67-0.38,1.14
	c-0.08,0.48-0.11,1.08-0.11,1.8c0,0.8,0.05,1.45,0.14,1.95c0.09,0.5,0.23,0.89,0.42,1.17c0.18,0.28,0.42,0.47,0.7,0.58
	c0.28,0.1,0.62,0.16,1.01,0.16c0.4,0,0.74-0.02,1.04-0.07c0.29-0.05,0.52-0.07,0.67-0.07c0.24,0,0.36,0.11,0.36,0.34v0.7
	c-0.28,0.1-0.6,0.2-0.99,0.28c-0.38,0.08-0.83,0.12-1.33,0.12c-0.63,0-1.16-0.09-1.61-0.28c-0.45-0.19-0.81-0.49-1.1-0.9
	c-0.29-0.41-0.5-0.94-0.63-1.58c-0.13-0.64-0.2-1.41-0.2-2.31c0-0.91,0.07-1.69,0.2-2.33c0.13-0.64,0.34-1.17,0.63-1.58
	c0.29-0.41,0.66-0.7,1.12-0.89C124.6,25.46,125.15,25.37,125.81,25.37z M120.4,35.37h-1.18c-0.16,0-0.29-0.11-0.38-0.33
	c-0.15-0.32-0.33-0.69-0.54-1.11c-0.21-0.42-0.43-0.85-0.67-1.31c-0.24-0.45-0.48-0.92-0.73-1.39c-0.25-0.47-0.48-0.91-0.71-1.34
	c-0.23-0.42-0.44-0.81-0.63-1.15c-0.19-0.35-0.35-0.63-0.47-0.85v7.47h-1.08c-0.23,0-0.34-0.11-0.34-0.33v-9.53h1.19
	c0.1,0,0.18,0.03,0.24,0.09c0.06,0.06,0.11,0.14,0.17,0.23c0.12,0.22,0.28,0.49,0.46,0.82c0.18,0.33,0.39,0.7,0.61,1.09
	c0.22,0.4,0.45,0.82,0.69,1.27c0.24,0.45,0.47,0.89,0.7,1.33c0.23,0.44,0.45,0.87,0.67,1.28c0.21,0.41,0.4,0.78,0.56,1.12v-7.24
	h1.08c0.23,0,0.34,0.11,0.34,0.33V35.37z M111.62,25.51c0.22,0,0.33,0.11,0.33,0.33v0.9h-4.07v3.03h3.37c0.22,0,0.33,0.11,0.33,0.33
	V31h-3.7v3.14h3.9c0.1,0,0.19,0.03,0.25,0.09c0.06,0.06,0.09,0.14,0.09,0.24v0.9h-5.39c-0.23,0-0.34-0.11-0.34-0.33v-9.53H111.62z
	 M104.25,30.16c0.23,0,0.34,0.11,0.34,0.33v4.61c-0.35,0.13-0.74,0.24-1.17,0.31c-0.43,0.08-0.9,0.11-1.4,0.11
	c-0.74,0-1.36-0.09-1.87-0.28c-0.51-0.19-0.91-0.49-1.22-0.9c-0.31-0.41-0.53-0.94-0.67-1.57c-0.14-0.64-0.21-1.4-0.21-2.3
	c0-0.95,0.07-1.75,0.22-2.4c0.15-0.65,0.38-1.17,0.69-1.57c0.31-0.4,0.71-0.68,1.19-0.86c0.48-0.18,1.07-0.26,1.75-0.26
	c0.48,0,0.91,0.04,1.27,0.11c0.36,0.07,0.63,0.14,0.8,0.22c0.11,0.05,0.19,0.1,0.22,0.17c0.03,0.07,0.05,0.17,0.05,0.3v0.64
	c-0.27-0.04-0.61-0.07-1-0.11c-0.39-0.03-0.76-0.05-1.1-0.05c-0.48,0-0.89,0.05-1.22,0.15c-0.33,0.1-0.6,0.29-0.8,0.56
	c-0.2,0.27-0.34,0.65-0.43,1.14c-0.09,0.48-0.14,1.11-0.14,1.88c0,0.83,0.05,1.5,0.16,2.01c0.1,0.51,0.26,0.9,0.47,1.18
	c0.21,0.28,0.47,0.47,0.79,0.56c0.32,0.09,0.69,0.14,1.12,0.14c0.22,0,0.42-0.01,0.62-0.02c0.19-0.01,0.37-0.04,0.52-0.06v-2.8H102
	c-0.09,0-0.16-0.03-0.21-0.09c-0.06-0.06-0.09-0.14-0.09-0.24v-0.9H104.25z M93.49,26.74c-0.23,0.67-0.46,1.4-0.7,2.18
	c-0.24,0.78-0.47,1.63-0.69,2.54h2.8c-0.22-0.91-0.45-1.76-0.69-2.54C93.97,28.14,93.73,27.41,93.49,26.74z M95.52,35.04
	c-0.07-0.43-0.14-0.84-0.21-1.23c-0.07-0.39-0.14-0.79-0.22-1.19h-3.17c-0.1,0.46-0.18,0.91-0.26,1.38
	c-0.08,0.46-0.15,0.92-0.22,1.36h-1.09c-0.21,0-0.31-0.12-0.3-0.36c0.03-0.28,0.07-0.56,0.13-0.84c0.17-0.92,0.36-1.8,0.57-2.64
	c0.21-0.84,0.42-1.63,0.64-2.36c0.22-0.73,0.44-1.41,0.66-2.03c0.23-0.62,0.44-1.16,0.64-1.64h1.42c0.11,0,0.2,0.02,0.26,0.07
	c0.06,0.05,0.1,0.12,0.14,0.23c0.2,0.48,0.42,1.06,0.65,1.73c0.24,0.67,0.47,1.42,0.71,2.25c0.23,0.82,0.45,1.71,0.66,2.65
	c0.21,0.94,0.39,1.92,0.54,2.92h-1.21C95.66,35.37,95.55,35.26,95.52,35.04z M81.34,35.37c-0.23,0-0.34-0.11-0.34-0.33v-9.53h1.15
	c0.1,0,0.19,0.03,0.25,0.09c0.06,0.06,0.09,0.14,0.09,0.24v8.28h3.5c0.23,0,0.34,0.11,0.34,0.33v0.92H81.34z M78.94,25.51
	c0.22,0,0.33,0.11,0.33,0.33v0.9H75.2v3.03h3.37c0.22,0,0.33,0.11,0.33,0.33V31h-3.7v3.14h3.9c0.1,0,0.19,0.03,0.25,0.09
	c0.06,0.06,0.09,0.14,0.09,0.24v0.9h-5.39c-0.23,0-0.34-0.11-0.34-0.33v-9.53H78.94z M71.94,25.51c0.27,0,0.37,0.12,0.33,0.36
	l-0.16,0.92c-0.1,0.61-0.24,1.28-0.42,2.03c-0.18,0.74-0.37,1.5-0.59,2.27c-0.22,0.77-0.45,1.52-0.7,2.27
	c-0.25,0.74-0.5,1.41-0.76,2.01h-1.36c-0.13,0-0.23-0.03-0.29-0.08c-0.06-0.05-0.11-0.13-0.15-0.22c-0.27-0.65-0.53-1.37-0.79-2.15
	c-0.26-0.78-0.5-1.58-0.73-2.41c-0.23-0.83-0.44-1.67-0.62-2.52c-0.18-0.85-0.33-1.68-0.44-2.48h1.28c0.2,0,0.31,0.11,0.34,0.33
	c0.07,0.47,0.15,1.01,0.26,1.61c0.11,0.6,0.24,1.25,0.39,1.94c0.16,0.69,0.34,1.42,0.56,2.18c0.21,0.76,0.46,1.53,0.75,2.3
	c0.28-0.8,0.54-1.58,0.76-2.35c0.22-0.77,0.41-1.52,0.56-2.23c0.16-0.72,0.29-1.39,0.4-2.03c0.11-0.64,0.2-1.22,0.26-1.75H71.94z
	 M61.34,26.74c-0.23,0.67-0.46,1.4-0.7,2.18c-0.24,0.78-0.47,1.63-0.69,2.54h2.8c-0.22-0.91-0.45-1.76-0.69-2.54
	C61.82,28.14,61.58,27.41,61.34,26.74z M63.37,35.04c-0.07-0.43-0.14-0.84-0.21-1.23c-0.07-0.39-0.14-0.79-0.22-1.19h-3.17
	c-0.1,0.46-0.18,0.91-0.26,1.38c-0.08,0.46-0.15,0.92-0.22,1.36h-1.09c-0.21,0-0.31-0.12-0.3-0.36c0.03-0.28,0.07-0.56,0.13-0.84
	c0.17-0.92,0.36-1.8,0.57-2.64c0.21-0.84,0.42-1.63,0.64-2.36c0.22-0.73,0.44-1.41,0.66-2.03c0.23-0.62,0.44-1.16,0.63-1.64h1.42
	c0.11,0,0.2,0.02,0.26,0.07c0.06,0.05,0.1,0.12,0.14,0.23c0.2,0.48,0.42,1.06,0.65,1.73c0.24,0.67,0.47,1.42,0.71,2.25
	c0.23,0.82,0.45,1.71,0.66,2.65c0.21,0.94,0.39,1.92,0.54,2.92h-1.21C63.51,35.37,63.4,35.26,63.37,35.04z M51.71,30.26h1.56
	c0.25,0,0.48-0.03,0.69-0.08c0.21-0.05,0.4-0.14,0.55-0.28c0.16-0.13,0.28-0.32,0.36-0.56c0.09-0.24,0.13-0.55,0.13-0.92
	c0-0.37-0.04-0.67-0.11-0.91c-0.08-0.24-0.19-0.43-0.33-0.57c-0.15-0.14-0.33-0.24-0.56-0.29c-0.23-0.05-0.49-0.08-0.8-0.08
	c-0.32,0-0.61,0.01-0.87,0.03c-0.26,0.02-0.46,0.04-0.63,0.07V30.26z M50.57,35.37c-0.23,0-0.34-0.11-0.34-0.33v-9.36
	c0.42-0.08,0.89-0.14,1.41-0.19c0.52-0.05,1.05-0.08,1.58-0.08c1.14,0,1.96,0.25,2.47,0.75c0.51,0.5,0.77,1.25,0.77,2.25
	c0,0.71-0.16,1.29-0.49,1.73c-0.33,0.45-0.76,0.76-1.3,0.95c0.23,0.27,0.46,0.6,0.69,0.97c0.23,0.37,0.45,0.75,0.65,1.14
	c0.2,0.39,0.39,0.77,0.55,1.15c0.17,0.38,0.3,0.72,0.39,1.01h-1.23c-0.13,0-0.23-0.03-0.29-0.08c-0.06-0.05-0.11-0.13-0.15-0.23
	c-0.09-0.24-0.2-0.51-0.35-0.82c-0.15-0.31-0.31-0.63-0.48-0.95c-0.18-0.33-0.37-0.65-0.58-0.98c-0.21-0.33-0.42-0.62-0.64-0.89
	h-1.52v3.95H50.57z M44.76,26.77H42.5c-0.23,0-0.34-0.11-0.34-0.33v-0.92h6.37c0.1,0,0.19,0.03,0.25,0.09
	c0.06,0.06,0.09,0.14,0.09,0.24v0.92h-2.62v8.6H45.1c-0.23,0-0.34-0.11-0.34-0.33V26.77z"/>
</svg>
